<?xml version="1.0" standalone="no"?>
<!DOCTYPE svg PUBLIC "-//W3C//DTD SVG 20010904//EN"
 "http://www.w3.org/TR/2001/REC-SVG-20010904/DTD/svg10.dtd">
<svg version="1.0" xmlns="http://www.w3.org/2000/svg"
 width="720.000000pt" height="720.000000pt" viewBox="0 0 720.000000 720.000000"
 preserveAspectRatio="xMidYMid meet">

<g transform="translate(0.000000,720.000000) scale(0.100000,-0.100000)"
fill="#000000" stroke="none">
<path d="M760 3550 l0 -3020 790 0 790 0 0 1260 0 1260 986 2 987 3 498 877
499 878 -499 877 -498 878 -1777 3 -1776 2 0 -3020z m2069 2108 l481 -848
-481 -847 c-265 -467 -483 -850 -485 -852 -2 -2 -4 762 -4 1699 0 937 2 1701
4 1699 2 -2 220 -385 485 -851z"/>
</g>
</svg>
